<svg width="172" height="31" viewBox="0 0 172 31" fill="none" xmlns="http://www.w3.org/2000/svg">
<rect width="172" height="31" rx="10" fill="white"/>
<path d="M27.6146 7.93066C27.8177 7.93066 27.9743 7.96875 28.0843 8.04492C28.1943 8.11263 28.2747 8.23958 28.3255 8.42578C28.3848 8.61198 28.4144 8.88281 28.4144 9.23828C28.4144 9.59375 28.3848 9.86458 28.3255 10.0508C28.2747 10.237 28.1943 10.3639 28.0843 10.4316C27.9743 10.4993 27.8177 10.5332 27.6146 10.5332H26.929L27.1068 20.3975H27.8685C28.0716 20.3975 28.2282 20.4355 28.3382 20.5117C28.4482 20.5794 28.5286 20.7064 28.5794 20.8926C28.6387 21.0788 28.6683 21.3496 28.6683 21.7051C28.6683 22.0605 28.6387 22.3314 28.5794 22.5176C28.5286 22.7038 28.4482 22.8307 28.3382 22.8984C28.2282 22.9661 28.0716 23 27.8685 23H23.1204C22.9173 23 22.7607 22.9661 22.6507 22.8984C22.5407 22.8307 22.456 22.7038 22.3968 22.5176C22.346 22.3314 22.3206 22.0605 22.3206 21.7051C22.3206 21.3496 22.346 21.0788 22.3968 20.8926C22.456 20.7064 22.5407 20.5794 22.6507 20.5117C22.7607 20.4355 22.9173 20.3975 23.1204 20.3975H24.2884L24.2122 12.8818L22.2952 18.0615C22.1852 18.3577 22.0329 18.5693 21.8382 18.6963C21.6435 18.8148 21.3685 18.874 21.013 18.874C20.6491 18.874 20.3698 18.8148 20.1751 18.6963C19.9805 18.5693 19.8239 18.3577 19.7054 18.0615L17.7757 12.9199L17.6995 20.3975H18.8802C19.0833 20.3975 19.2399 20.4355 19.3499 20.5117C19.4599 20.5794 19.5404 20.7064 19.5911 20.8926C19.6504 21.0788 19.68 21.3496 19.68 21.7051C19.68 22.0605 19.6504 22.3314 19.5911 22.5176C19.5404 22.7038 19.4599 22.8307 19.3499 22.8984C19.2399 22.9661 19.0833 23 18.8802 23H14.1321C13.929 23 13.7724 22.9661 13.6624 22.8984C13.5524 22.8307 13.4678 22.7038 13.4085 22.5176C13.3577 22.3314 13.3323 22.0605 13.3323 21.7051C13.3323 21.3496 13.3577 21.0788 13.4085 20.8926C13.4678 20.7064 13.5524 20.5794 13.6624 20.5117C13.7724 20.4355 13.929 20.3975 14.1321 20.3975H14.8812L15.0716 10.5332H14.3861C14.1829 10.5332 14.0264 10.4993 13.9163 10.4316C13.8063 10.3639 13.7217 10.237 13.6624 10.0508C13.6116 9.86458 13.5863 9.59375 13.5863 9.23828C13.5863 8.88281 13.6116 8.61198 13.6624 8.42578C13.7217 8.23958 13.8063 8.11263 13.9163 8.04492C14.0264 7.96875 14.1829 7.93066 14.3861 7.93066H17.9915C18.1693 7.93066 18.3131 7.96029 18.4232 8.01953C18.5417 8.07878 18.6263 8.18034 18.6771 8.32422L21.0003 14.5576L23.3109 8.32422C23.3616 8.18034 23.442 8.07878 23.5521 8.01953C23.6706 7.96029 23.8187 7.93066 23.9964 7.93066H27.6146ZM48.3039 7.93066C48.6424 7.93066 48.9175 7.99837 49.1291 8.13379C49.3407 8.26074 49.493 8.4681 49.5861 8.75586L53.2677 20.3975H54.3722C54.5754 20.3975 54.7319 20.4313 54.842 20.499C54.952 20.5667 55.0324 20.6937 55.0832 20.8799C55.1424 21.0661 55.172 21.3369 55.172 21.6924C55.172 22.0479 55.1424 22.3187 55.0832 22.5049C55.0324 22.6911 54.952 22.8223 54.842 22.8984C54.7319 22.9661 54.5754 23 54.3722 23H48.9894C48.7863 23 48.6297 22.9661 48.5197 22.8984C48.4097 22.8223 48.325 22.6911 48.2658 22.5049C48.215 22.3187 48.1896 22.0479 48.1896 21.6924C48.1896 21.3369 48.215 21.0661 48.2658 20.8799C48.325 20.6937 48.4097 20.5667 48.5197 20.499C48.6297 20.4313 48.7863 20.3975 48.9894 20.3975H50.0812L49.5099 18.5566H44.8888L44.3175 20.3975H45.257C45.4601 20.3975 45.6167 20.4313 45.7267 20.499C45.8367 20.5667 45.9171 20.6937 45.9679 20.8799C46.0272 21.0661 46.0568 21.3369 46.0568 21.6924C46.0568 22.0479 46.0272 22.3187 45.9679 22.5049C45.9171 22.6911 45.8367 22.8223 45.7267 22.8984C45.6167 22.9661 45.4601 23 45.257 23H40.1281C39.925 23 39.7684 22.9661 39.6584 22.8984C39.5483 22.8223 39.4679 22.6911 39.4171 22.5049C39.3579 22.3187 39.3283 22.0479 39.3283 21.6924C39.3283 21.3369 39.3579 21.0661 39.4171 20.8799C39.4679 20.6937 39.5483 20.5667 39.6584 20.499C39.7684 20.4313 39.925 20.3975 40.1281 20.3975H41.1945L44.4064 10.5332H42.2863C42.0832 10.5332 41.9266 10.4993 41.8166 10.4316C41.7065 10.3555 41.6219 10.2243 41.5627 10.0381C41.5119 9.85189 41.4865 9.58105 41.4865 9.22559C41.4865 8.87012 41.5119 8.59928 41.5627 8.41309C41.6219 8.22689 41.7065 8.09993 41.8166 8.03223C41.9266 7.96452 42.0832 7.93066 42.2863 7.93066H48.3039ZM47.1867 10.5332L45.6252 15.9541H48.7863L47.2629 10.5332H47.1867ZM78.083 7.93066C78.2861 7.93066 78.4427 7.96875 78.5527 8.04492C78.6628 8.11263 78.7432 8.23958 78.7939 8.42578C78.8532 8.61198 78.8828 8.88281 78.8828 9.23828C78.8828 9.59375 78.8532 9.86458 78.7939 10.0508C78.7432 10.237 78.6628 10.3639 78.5527 10.4316C78.4427 10.4993 78.2861 10.5332 78.083 10.5332H75.0869V20.3975H78.3369C78.54 20.3975 78.6966 20.4355 78.8066 20.5117C78.9167 20.5794 78.9971 20.7064 79.0479 20.8926C79.1071 21.0788 79.1367 21.3496 79.1367 21.7051C79.1367 22.0605 79.1071 22.3314 79.0479 22.5176C78.9971 22.7038 78.9167 22.8307 78.8066 22.8984C78.6966 22.9661 78.54 23 78.3369 23H68.6631C68.46 23 68.3034 22.9661 68.1934 22.8984C68.0833 22.8307 67.9987 22.7038 67.9395 22.5176C67.8887 22.3314 67.8633 22.0605 67.8633 21.7051C67.8633 21.3496 67.8887 21.0788 67.9395 20.8926C67.9987 20.7064 68.0833 20.5794 68.1934 20.5117C68.3034 20.4355 68.46 20.3975 68.6631 20.3975H71.9131V10.5332H68.917C68.7139 10.5332 68.5573 10.4993 68.4473 10.4316C68.3372 10.3639 68.2526 10.237 68.1934 10.0508C68.1426 9.86458 68.1172 9.59375 68.1172 9.23828C68.1172 8.88281 68.1426 8.61198 68.1934 8.42578C68.2526 8.23958 68.3372 8.11263 68.4473 8.04492C68.5573 7.96875 68.7139 7.93066 68.917 7.93066H78.083ZM101.311 7.93066C101.514 7.93066 101.671 7.96875 101.781 8.04492C101.891 8.11263 101.972 8.23958 102.022 8.42578C102.082 8.61198 102.111 8.88281 102.111 9.23828C102.111 9.59375 102.082 9.86458 102.022 10.0508C101.972 10.237 101.891 10.3639 101.781 10.4316C101.671 10.4993 101.514 10.5332 101.311 10.5332H98.5438V20.2705H103V16.3096C103 16.0218 103.127 15.8187 103.381 15.7002C103.643 15.5732 104.075 15.5098 104.676 15.5098C105.073 15.5098 105.378 15.5394 105.59 15.5986C105.81 15.6494 105.962 15.7298 106.047 15.8398C106.131 15.9499 106.174 16.1064 106.174 16.3096V22.1748C106.174 22.4626 106.11 22.6742 105.983 22.8096C105.856 22.9365 105.645 23 105.348 23H93.5164C93.3133 23 93.1567 22.9661 93.0467 22.8984C92.9367 22.8307 92.8521 22.7038 92.7928 22.5176C92.742 22.3314 92.7166 22.0605 92.7166 21.7051C92.7166 21.3496 92.742 21.0788 92.7928 20.8926C92.8521 20.7064 92.9367 20.5794 93.0467 20.5117C93.1567 20.4355 93.3133 20.3975 93.5164 20.3975H95.37V10.5332H93.5164C93.3133 10.5332 93.1567 10.4993 93.0467 10.4316C92.9367 10.3639 92.8521 10.237 92.7928 10.0508C92.742 9.86458 92.7166 9.59375 92.7166 9.23828C92.7166 8.88281 92.742 8.61198 92.7928 8.42578C92.8521 8.23958 92.9367 8.11263 93.0467 8.04492C93.1567 7.96875 93.3133 7.93066 93.5164 7.93066H101.311ZM131.344 7.93066C131.641 7.93066 131.852 7.99414 131.979 8.12109C132.106 8.24805 132.17 8.45964 132.17 8.75586V12.5898C132.17 12.8776 132.047 13.085 131.801 13.2119C131.556 13.3304 131.162 13.3896 130.621 13.3896C130.096 13.3896 129.736 13.3304 129.542 13.2119C129.347 13.0934 129.25 12.8861 129.25 12.5898V10.6602H124.172V13.8721H127.269C127.565 13.8721 127.773 13.9694 127.891 14.1641C128.01 14.3587 128.069 14.7184 128.069 15.2432C128.069 15.7679 128.01 16.1276 127.891 16.3223C127.773 16.5085 127.565 16.6016 127.269 16.6016H124.172V20.2705H129.377V17.7061C129.377 17.4183 129.499 17.2152 129.745 17.0967C129.999 16.9697 130.409 16.9062 130.976 16.9062C131.535 16.9062 131.916 16.9655 132.119 17.084C132.322 17.2025 132.424 17.4098 132.424 17.7061V22.1748C132.424 22.4626 132.36 22.6742 132.233 22.8096C132.106 22.9365 131.895 23 131.598 23H119.766C119.563 23 119.407 22.9661 119.297 22.8984C119.187 22.8307 119.102 22.7038 119.043 22.5176C118.992 22.3314 118.966 22.0605 118.966 21.7051C118.966 21.3496 118.992 21.0788 119.043 20.8926C119.102 20.7064 119.187 20.5794 119.297 20.5117C119.407 20.4355 119.563 20.3975 119.766 20.3975H120.998V10.5332H119.766C119.563 10.5332 119.407 10.4993 119.297 10.4316C119.187 10.3639 119.102 10.237 119.043 10.0508C118.992 9.86458 118.966 9.59375 118.966 9.23828C118.966 8.88281 118.992 8.61198 119.043 8.42578C119.102 8.23958 119.187 8.11263 119.297 8.04492C119.407 7.96875 119.563 7.93066 119.766 7.93066H131.344Z" fill="#4B420A"/>
<g clip-path="url(#clip0_151_31)">
<path d="M158.346 13.1939C158.1 12.3448 157.463 11.7903 156.241 11.2303C156.676 9.04832 155.629 7.80144 153.643 6.64244L153.802 8.24438C152.395 7.30447 150.38 6.33488 148.574 6.41919C147.972 6.4471 147.351 6.54151 146.699 6.7321L148.909 9.05426C147.701 9.06138 145.682 9.23001 144.566 10.0595L145.76 12.0016L144.398 12.7088V15.2168L145.87 16.048L144.398 17.3157V19.0269C145.455 18.9408 146.882 19.0952 148.157 18.6688C147.256 19.7257 146.968 21.2404 145.894 22.5627C147.33 22.508 148.762 22.3216 150.293 21.4909L149.935 24.3267C152.374 23.4183 154.783 21.1288 154.576 19.1747L154.611 19.0114C154.753 19.0958 154.902 19.1712 155.059 19.2365L159.372 20.7648C159.607 20.2548 159.863 19.7418 160.134 19.2293C159.964 19.2953 159.78 19.3321 159.587 19.3321C158.752 19.3321 158.076 18.6558 158.076 17.8216C158.076 16.9873 158.752 16.3111 159.587 16.3111C160.33 16.3111 160.947 16.8478 161.073 17.5544C161.523 16.7938 162 16.0391 162.493 15.2981L158.345 13.1939H158.346Z" fill="#4B420A"/>
</g>
<defs>
<clipPath id="clip0_151_31">
<rect width="19" height="19" fill="white" transform="translate(144 6)"/>
</clipPath>
</defs>
</svg>
