<svg width="177" height="37" viewBox="0 0 177 37" fill="none" xmlns="http://www.w3.org/2000/svg">
<rect width="177" height="37" rx="13" fill="white"/>
<path d="M36.4896 10.9307C36.6928 10.9307 36.8493 10.9688 36.9594 11.0449C37.0694 11.1126 37.1498 11.2396 37.2006 11.4258C37.2598 11.612 37.2895 11.8828 37.2895 12.2383C37.2895 12.5938 37.2598 12.8646 37.2006 13.0508C37.1498 13.237 37.0694 13.3639 36.9594 13.4316C36.8493 13.4993 36.6928 13.5332 36.4896 13.5332H35.8041L35.9818 23.3975H36.7436C36.9467 23.3975 37.1033 23.4355 37.2133 23.5117C37.3233 23.5794 37.4037 23.7064 37.4545 23.8926C37.5137 24.0788 37.5434 24.3496 37.5434 24.7051C37.5434 25.0605 37.5137 25.3314 37.4545 25.5176C37.4037 25.7038 37.3233 25.8307 37.2133 25.8984C37.1033 25.9661 36.9467 26 36.7436 26H31.9955C31.7924 26 31.6358 25.9661 31.5258 25.8984C31.4158 25.8307 31.3311 25.7038 31.2719 25.5176C31.2211 25.3314 31.1957 25.0605 31.1957 24.7051C31.1957 24.3496 31.2211 24.0788 31.2719 23.8926C31.3311 23.7064 31.4158 23.5794 31.5258 23.5117C31.6358 23.4355 31.7924 23.3975 31.9955 23.3975H33.1635L33.0873 15.8818L31.1703 21.0615C31.0603 21.3577 30.9079 21.5693 30.7133 21.6963C30.5186 21.8148 30.2436 21.874 29.8881 21.874C29.5242 21.874 29.2449 21.8148 29.0502 21.6963C28.8555 21.5693 28.699 21.3577 28.5805 21.0615L26.6508 15.9199L26.5746 23.3975H27.7553C27.9584 23.3975 28.115 23.4355 28.225 23.5117C28.335 23.5794 28.4154 23.7064 28.4662 23.8926C28.5255 24.0788 28.5551 24.3496 28.5551 24.7051C28.5551 25.0605 28.5255 25.3314 28.4662 25.5176C28.4154 25.7038 28.335 25.8307 28.225 25.8984C28.115 25.9661 27.9584 26 27.7553 26H23.0072C22.8041 26 22.6475 25.9661 22.5375 25.8984C22.4275 25.8307 22.3428 25.7038 22.2836 25.5176C22.2328 25.3314 22.2074 25.0605 22.2074 24.7051C22.2074 24.3496 22.2328 24.0788 22.2836 23.8926C22.3428 23.7064 22.4275 23.5794 22.5375 23.5117C22.6475 23.4355 22.8041 23.3975 23.0072 23.3975H23.7562L23.9467 13.5332H23.2611C23.058 13.5332 22.9014 13.4993 22.7914 13.4316C22.6814 13.3639 22.5967 13.237 22.5375 13.0508C22.4867 12.8646 22.4613 12.5938 22.4613 12.2383C22.4613 11.8828 22.4867 11.612 22.5375 11.4258C22.5967 11.2396 22.6814 11.1126 22.7914 11.0449C22.9014 10.9688 23.058 10.9307 23.2611 10.9307H26.8666C27.0443 10.9307 27.1882 10.9603 27.2982 11.0195C27.4167 11.0788 27.5014 11.1803 27.5521 11.3242L29.8754 17.5576L32.1859 11.3242C32.2367 11.1803 32.3171 11.0788 32.4271 11.0195C32.5456 10.9603 32.6937 10.9307 32.8715 10.9307H36.4896ZM57.1789 10.9307C57.5175 10.9307 57.7926 10.9984 58.0041 11.1338C58.2157 11.2607 58.3681 11.4681 58.4612 11.7559L62.1428 23.3975H63.2473C63.4504 23.3975 63.607 23.4313 63.717 23.499C63.8271 23.5667 63.9075 23.6937 63.9582 23.8799C64.0175 24.0661 64.0471 24.3369 64.0471 24.6924C64.0471 25.0479 64.0175 25.3187 63.9582 25.5049C63.9075 25.6911 63.8271 25.8223 63.717 25.8984C63.607 25.9661 63.4504 26 63.2473 26H57.8645C57.6614 26 57.5048 25.9661 57.3948 25.8984C57.2847 25.8223 57.2001 25.6911 57.1409 25.5049C57.0901 25.3187 57.0647 25.0479 57.0647 24.6924C57.0647 24.3369 57.0901 24.0661 57.1409 23.8799C57.2001 23.6937 57.2847 23.5667 57.3948 23.499C57.5048 23.4313 57.6614 23.3975 57.8645 23.3975H58.9563L58.385 21.5566H53.7639L53.1926 23.3975H54.1321C54.3352 23.3975 54.4918 23.4313 54.6018 23.499C54.7118 23.5667 54.7922 23.6937 54.843 23.8799C54.9023 24.0661 54.9319 24.3369 54.9319 24.6924C54.9319 25.0479 54.9023 25.3187 54.843 25.5049C54.7922 25.6911 54.7118 25.8223 54.6018 25.8984C54.4918 25.9661 54.3352 26 54.1321 26H49.0032C48.8 26 48.6435 25.9661 48.5334 25.8984C48.4234 25.8223 48.343 25.6911 48.2922 25.5049C48.233 25.3187 48.2034 25.0479 48.2034 24.6924C48.2034 24.3369 48.233 24.0661 48.2922 23.8799C48.343 23.6937 48.4234 23.5667 48.5334 23.499C48.6435 23.4313 48.8 23.3975 49.0032 23.3975H50.0696L53.2815 13.5332H51.1614C50.9582 13.5332 50.8017 13.4993 50.6916 13.4316C50.5816 13.3555 50.497 13.2243 50.4377 13.0381C50.387 12.8519 50.3616 12.5811 50.3616 12.2256C50.3616 11.8701 50.387 11.5993 50.4377 11.4131C50.497 11.2269 50.5816 11.0999 50.6916 11.0322C50.8017 10.9645 50.9582 10.9307 51.1614 10.9307H57.1789ZM56.0618 13.5332L54.5002 18.9541H57.6614L56.1379 13.5332H56.0618ZM86.9581 10.9307C87.1612 10.9307 87.3178 10.9688 87.4278 11.0449C87.5378 11.1126 87.6182 11.2396 87.669 11.4258C87.7283 11.612 87.7579 11.8828 87.7579 12.2383C87.7579 12.5938 87.7283 12.8646 87.669 13.0508C87.6182 13.237 87.5378 13.3639 87.4278 13.4316C87.3178 13.4993 87.1612 13.5332 86.9581 13.5332H83.962V23.3975H87.212C87.4151 23.3975 87.5717 23.4355 87.6817 23.5117C87.7917 23.5794 87.8721 23.7064 87.9229 23.8926C87.9822 24.0788 88.0118 24.3496 88.0118 24.7051C88.0118 25.0605 87.9822 25.3314 87.9229 25.5176C87.8721 25.7038 87.7917 25.8307 87.6817 25.8984C87.5717 25.9661 87.4151 26 87.212 26H77.5382C77.335 26 77.1785 25.9661 77.0684 25.8984C76.9584 25.8307 76.8738 25.7038 76.8145 25.5176C76.7637 25.3314 76.7384 25.0605 76.7384 24.7051C76.7384 24.3496 76.7637 24.0788 76.8145 23.8926C76.8738 23.7064 76.9584 23.5794 77.0684 23.5117C77.1785 23.4355 77.335 23.3975 77.5382 23.3975H80.7882V13.5332H77.7921C77.5889 13.5332 77.4324 13.4993 77.3223 13.4316C77.2123 13.3639 77.1277 13.237 77.0684 13.0508C77.0177 12.8646 76.9923 12.5938 76.9923 12.2383C76.9923 11.8828 77.0177 11.612 77.0684 11.4258C77.1277 11.2396 77.2123 11.1126 77.3223 11.0449C77.4324 10.9688 77.5889 10.9307 77.7921 10.9307H86.9581ZM110.186 10.9307C110.39 10.9307 110.546 10.9688 110.656 11.0449C110.766 11.1126 110.847 11.2396 110.897 11.4258C110.957 11.612 110.986 11.8828 110.986 12.2383C110.986 12.5938 110.957 12.8646 110.897 13.0508C110.847 13.237 110.766 13.3639 110.656 13.4316C110.546 13.4993 110.39 13.5332 110.186 13.5332H107.419V23.2705H111.875V19.3096C111.875 19.0218 112.002 18.8187 112.256 18.7002C112.518 18.5732 112.95 18.5098 113.551 18.5098C113.948 18.5098 114.253 18.5394 114.465 18.5986C114.685 18.6494 114.837 18.7298 114.922 18.8398C115.006 18.9499 115.049 19.1064 115.049 19.3096V25.1748C115.049 25.4626 114.985 25.6742 114.858 25.8096C114.731 25.9365 114.52 26 114.224 26H102.392C102.188 26 102.032 25.9661 101.922 25.8984C101.812 25.8307 101.727 25.7038 101.668 25.5176C101.617 25.3314 101.592 25.0605 101.592 24.7051C101.592 24.3496 101.617 24.0788 101.668 23.8926C101.727 23.7064 101.812 23.5794 101.922 23.5117C102.032 23.4355 102.188 23.3975 102.392 23.3975H104.245V13.5332H102.392C102.188 13.5332 102.032 13.4993 101.922 13.4316C101.812 13.3639 101.727 13.237 101.668 13.0508C101.617 12.8646 101.592 12.5938 101.592 12.2383C101.592 11.8828 101.617 11.612 101.668 11.4258C101.727 11.2396 101.812 11.1126 101.922 11.0449C102.032 10.9688 102.188 10.9307 102.392 10.9307H110.186ZM140.219 10.9307C140.516 10.9307 140.727 10.9941 140.854 11.1211C140.981 11.248 141.045 11.4596 141.045 11.7559V15.5898C141.045 15.8776 140.922 16.085 140.677 16.2119C140.431 16.3304 140.038 16.3896 139.496 16.3896C138.971 16.3896 138.611 16.3304 138.417 16.2119C138.222 16.0934 138.125 15.8861 138.125 15.5898V13.6602H133.047V16.8721H136.144C136.441 16.8721 136.648 16.9694 136.766 17.1641C136.885 17.3587 136.944 17.7184 136.944 18.2432C136.944 18.7679 136.885 19.1276 136.766 19.3223C136.648 19.5085 136.441 19.6016 136.144 19.6016H133.047V23.2705H138.252V20.7061C138.252 20.4183 138.374 20.2152 138.62 20.0967C138.874 19.9697 139.284 19.9062 139.851 19.9062C140.41 19.9062 140.791 19.9655 140.994 20.084C141.197 20.2025 141.299 20.4098 141.299 20.7061V25.1748C141.299 25.4626 141.235 25.6742 141.108 25.8096C140.981 25.9365 140.77 26 140.473 26H128.641C128.438 26 128.282 25.9661 128.172 25.8984C128.062 25.8307 127.977 25.7038 127.918 25.5176C127.867 25.3314 127.842 25.0605 127.842 24.7051C127.842 24.3496 127.867 24.0788 127.918 23.8926C127.977 23.7064 128.062 23.5794 128.172 23.5117C128.282 23.4355 128.438 23.3975 128.641 23.3975H129.873V13.5332H128.641C128.438 13.5332 128.282 13.4993 128.172 13.4316C128.062 13.3639 127.977 13.237 127.918 13.0508C127.867 12.8646 127.842 12.5938 127.842 12.2383C127.842 11.8828 127.867 11.612 127.918 11.4258C127.977 11.2396 128.062 11.1126 128.172 11.0449C128.282 10.9688 128.438 10.9307 128.641 10.9307H140.219ZM161.125 10.6514C162.513 10.6514 163.736 10.9688 164.794 11.6035C165.851 12.2298 166.668 13.1354 167.244 14.3203C167.828 15.4967 168.12 16.8763 168.12 18.459C168.12 20.0417 167.828 21.4255 167.244 22.6104C166.668 23.7868 165.851 24.6924 164.794 25.3271C163.736 25.9619 162.513 26.2793 161.125 26.2793C159.737 26.2793 158.514 25.9619 157.456 25.3271C156.398 24.6924 155.577 23.7868 154.993 22.6104C154.417 21.4255 154.129 20.0417 154.129 18.459C154.129 16.8763 154.417 15.4967 154.993 14.3203C155.577 13.1354 156.398 12.2298 157.456 11.6035C158.514 10.9688 159.737 10.6514 161.125 10.6514ZM161.125 13.5332C159.948 13.5332 159.055 13.9564 158.446 14.8027C157.837 15.6491 157.532 16.8678 157.532 18.459C157.532 20.0501 157.837 21.2731 158.446 22.1279C159.055 22.9743 159.948 23.3975 161.125 23.3975C162.301 23.3975 163.194 22.9743 163.803 22.1279C164.413 21.2731 164.717 20.0501 164.717 18.459C164.717 16.8678 164.413 15.6491 163.803 14.8027C163.194 13.9564 162.301 13.5332 161.125 13.5332Z" fill="#560E26"/>
<path d="M44 1H9V36H44V1Z" fill="white"/>
<path fill-rule="evenodd" clip-rule="evenodd" d="M17.7536 7H35.2464C35.8824 6.99999 36.4312 6.99997 36.8855 7.03069C37.3637 7.06305 37.842 7.13421 38.3147 7.32827C39.3805 7.76596 40.2274 8.6055 40.6688 9.66218C40.8646 10.1307 40.9363 10.6049 40.9691 11.0791C41 11.5294 41 12.0735 41 12.704V24.296C41 24.9265 41 25.4706 40.9691 25.9209C40.9363 26.395 40.8646 26.8693 40.6688 27.3379C40.2274 28.3945 39.3805 29.2341 38.3147 29.6717C37.842 29.8657 37.3637 29.9369 36.8855 29.9694C36.4312 30 35.8824 30 35.2464 30H17.7536C17.1176 30 16.5688 30 16.1145 29.9694C15.6363 29.9369 15.1579 29.8657 14.6853 29.6717C13.6195 29.2341 12.7726 28.3945 12.3311 27.3379C12.1354 26.8693 12.0636 26.395 12.031 25.9209C12 25.4706 12 24.9265 12 24.296V12.704C12 12.0735 12 11.5294 12.031 11.0791C12.0636 10.6049 12.1354 10.1307 12.3311 9.66218C12.7726 8.6055 13.6195 7.76596 14.6853 7.32827C15.1579 7.13421 15.6363 7.06305 16.1145 7.03069C16.5688 6.99997 17.1176 6.99999 17.7536 7ZM15.3603 10.2743C15.8877 9.67683 16.8037 9.61628 17.4064 10.1391L25.5452 17.1991C26.0918 17.6733 26.9082 17.6733 27.4548 17.1991L35.5937 10.1391C36.1963 9.61628 37.1124 9.67683 37.6396 10.2743C38.167 10.8718 38.1059 11.7799 37.5033 12.3027L29.3645 19.3628C27.7244 20.7855 25.2756 20.7855 23.6355 19.3628L15.4967 12.3027C14.894 11.7799 14.833 10.8718 15.3603 10.2743Z" fill="#560E26"/>
<path d="M15 27V11.443C15 10.7448 15.6974 10.2615 16.3511 10.5067L17.3511 10.8817C17.7414 11.028 18 11.4012 18 11.818V27C18 27.5523 17.5523 28 17 28H16C15.4477 28 15 27.5523 15 27Z" fill="white"/>
<path d="M38 27V11.443C38 10.7448 37.3026 10.2615 36.6489 10.5067L35.6489 10.8817C35.2586 11.028 35 11.4012 35 11.818V27C35 27.5523 35.4477 28 36 28H37C37.5523 28 38 27.5523 38 27Z" fill="white"/>
</svg>
