<svg width="138" height="31" viewBox="0 0 138 31" fill="none" xmlns="http://www.w3.org/2000/svg">
<rect width="138" height="31" rx="10" fill="white"/>
<path d="M22.5146 7.93066C22.7177 7.93066 22.8743 7.96875 22.9843 8.04492C23.0943 8.11263 23.1747 8.23958 23.2255 8.42578C23.2848 8.61198 23.3144 8.88281 23.3144 9.23828C23.3144 9.59375 23.2848 9.86458 23.2255 10.0508C23.1747 10.237 23.0943 10.3639 22.9843 10.4316C22.8743 10.4993 22.7177 10.5332 22.5146 10.5332H21.829L22.0068 20.3975H22.7685C22.9716 20.3975 23.1282 20.4355 23.2382 20.5117C23.3482 20.5794 23.4286 20.7064 23.4794 20.8926C23.5387 21.0788 23.5683 21.3496 23.5683 21.7051C23.5683 22.0605 23.5387 22.3314 23.4794 22.5176C23.4286 22.7038 23.3482 22.8307 23.2382 22.8984C23.1282 22.9661 22.9716 23 22.7685 23H18.0204C17.8173 23 17.6607 22.9661 17.5507 22.8984C17.4407 22.8307 17.356 22.7038 17.2968 22.5176C17.246 22.3314 17.2206 22.0605 17.2206 21.7051C17.2206 21.3496 17.246 21.0788 17.2968 20.8926C17.356 20.7064 17.4407 20.5794 17.5507 20.5117C17.6607 20.4355 17.8173 20.3975 18.0204 20.3975H19.1884L19.1122 12.8818L17.1952 18.0615C17.0852 18.3577 16.9329 18.5693 16.7382 18.6963C16.5435 18.8148 16.2685 18.874 15.913 18.874C15.5491 18.874 15.2698 18.8148 15.0751 18.6963C14.8805 18.5693 14.7239 18.3577 14.6054 18.0615L12.6757 12.9199L12.5995 20.3975H13.7802C13.9833 20.3975 14.1399 20.4355 14.2499 20.5117C14.3599 20.5794 14.4404 20.7064 14.4911 20.8926C14.5504 21.0788 14.58 21.3496 14.58 21.7051C14.58 22.0605 14.5504 22.3314 14.4911 22.5176C14.4404 22.7038 14.3599 22.8307 14.2499 22.8984C14.1399 22.9661 13.9833 23 13.7802 23H9.03215C8.82903 23 8.67245 22.9661 8.56242 22.8984C8.4524 22.8307 8.36776 22.7038 8.30852 22.5176C8.25774 22.3314 8.23235 22.0605 8.23235 21.7051C8.23235 21.3496 8.25774 21.0788 8.30852 20.8926C8.36776 20.7064 8.4524 20.5794 8.56242 20.5117C8.67245 20.4355 8.82903 20.3975 9.03215 20.3975H9.78117L9.9716 10.5332H9.28606C9.08293 10.5332 8.92636 10.4993 8.81633 10.4316C8.7063 10.3639 8.62167 10.237 8.56242 10.0508C8.51164 9.86458 8.48625 9.59375 8.48625 9.23828C8.48625 8.88281 8.51164 8.61198 8.56242 8.42578C8.62167 8.23958 8.7063 8.11263 8.81633 8.04492C8.92636 7.96875 9.08293 7.93066 9.28606 7.93066H12.8915C13.0693 7.93066 13.2131 7.96029 13.3232 8.01953C13.4417 8.07878 13.5263 8.18034 13.5771 8.32422L15.9003 14.5576L18.2109 8.32422C18.2616 8.18034 18.342 8.07878 18.4521 8.01953C18.5706 7.96029 18.7187 7.93066 18.8964 7.93066H22.5146ZM38.0039 7.93066C38.3424 7.93066 38.6175 7.99837 38.8291 8.13379C39.0407 8.26074 39.193 8.4681 39.2861 8.75586L42.9677 20.3975H44.0722C44.2754 20.3975 44.4319 20.4313 44.542 20.499C44.652 20.5667 44.7324 20.6937 44.7832 20.8799C44.8424 21.0661 44.872 21.3369 44.872 21.6924C44.872 22.0479 44.8424 22.3187 44.7832 22.5049C44.7324 22.6911 44.652 22.8223 44.542 22.8984C44.4319 22.9661 44.2754 23 44.0722 23H38.6894C38.4863 23 38.3297 22.9661 38.2197 22.8984C38.1097 22.8223 38.025 22.6911 37.9658 22.5049C37.915 22.3187 37.8896 22.0479 37.8896 21.6924C37.8896 21.3369 37.915 21.0661 37.9658 20.8799C38.025 20.6937 38.1097 20.5667 38.2197 20.499C38.3297 20.4313 38.4863 20.3975 38.6894 20.3975H39.7812L39.2099 18.5566H34.5888L34.0175 20.3975H34.957C35.1601 20.3975 35.3167 20.4313 35.4267 20.499C35.5367 20.5667 35.6171 20.6937 35.6679 20.8799C35.7272 21.0661 35.7568 21.3369 35.7568 21.6924C35.7568 22.0479 35.7272 22.3187 35.6679 22.5049C35.6171 22.6911 35.5367 22.8223 35.4267 22.8984C35.3167 22.9661 35.1601 23 34.957 23H29.8281C29.625 23 29.4684 22.9661 29.3584 22.8984C29.2483 22.8223 29.1679 22.6911 29.1171 22.5049C29.0579 22.3187 29.0283 22.0479 29.0283 21.6924C29.0283 21.3369 29.0579 21.0661 29.1171 20.8799C29.1679 20.6937 29.2483 20.5667 29.3584 20.499C29.4684 20.4313 29.625 20.3975 29.8281 20.3975H30.8945L34.1064 10.5332H31.9863C31.7832 10.5332 31.6266 10.4993 31.5166 10.4316C31.4065 10.3555 31.3219 10.2243 31.2627 10.0381C31.2119 9.85189 31.1865 9.58105 31.1865 9.22559C31.1865 8.87012 31.2119 8.59928 31.2627 8.41309C31.3219 8.22689 31.4065 8.09993 31.5166 8.03223C31.6266 7.96452 31.7832 7.93066 31.9863 7.93066H38.0039ZM36.8867 10.5332L35.3252 15.9541H38.4863L36.9629 10.5332H36.8867ZM62.583 7.93066C62.7861 7.93066 62.9427 7.96875 63.0527 8.04492C63.1628 8.11263 63.2432 8.23958 63.2939 8.42578C63.3532 8.61198 63.3828 8.88281 63.3828 9.23828C63.3828 9.59375 63.3532 9.86458 63.2939 10.0508C63.2432 10.237 63.1628 10.3639 63.0527 10.4316C62.9427 10.4993 62.7861 10.5332 62.583 10.5332H59.5869V20.3975H62.8369C63.04 20.3975 63.1966 20.4355 63.3066 20.5117C63.4167 20.5794 63.4971 20.7064 63.5479 20.8926C63.6071 21.0788 63.6367 21.3496 63.6367 21.7051C63.6367 22.0605 63.6071 22.3314 63.5479 22.5176C63.4971 22.7038 63.4167 22.8307 63.3066 22.8984C63.1966 22.9661 63.04 23 62.8369 23H53.1631C52.96 23 52.8034 22.9661 52.6934 22.8984C52.5833 22.8307 52.4987 22.7038 52.4395 22.5176C52.3887 22.3314 52.3633 22.0605 52.3633 21.7051C52.3633 21.3496 52.3887 21.0788 52.4395 20.8926C52.4987 20.7064 52.5833 20.5794 52.6934 20.5117C52.8034 20.4355 52.96 20.3975 53.1631 20.3975H56.4131V10.5332H53.417C53.2139 10.5332 53.0573 10.4993 52.9473 10.4316C52.8372 10.3639 52.7526 10.237 52.6934 10.0508C52.6426 9.86458 52.6172 9.59375 52.6172 9.23828C52.6172 8.88281 52.6426 8.61198 52.6934 8.42578C52.7526 8.23958 52.8372 8.11263 52.9473 8.04492C53.0573 7.96875 53.2139 7.93066 53.417 7.93066H62.583ZM80.6114 7.93066C80.8145 7.93066 80.9711 7.96875 81.0811 8.04492C81.1911 8.11263 81.2715 8.23958 81.3223 8.42578C81.3816 8.61198 81.4112 8.88281 81.4112 9.23828C81.4112 9.59375 81.3816 9.86458 81.3223 10.0508C81.2715 10.237 81.1911 10.3639 81.0811 10.4316C80.9711 10.4993 80.8145 10.5332 80.6114 10.5332H77.8438V20.2705H82.2998V16.3096C82.2998 16.0218 82.4268 15.8187 82.6807 15.7002C82.9431 15.5732 83.3747 15.5098 83.9756 15.5098C84.3734 15.5098 84.6781 15.5394 84.8897 15.5986C85.1097 15.6494 85.2621 15.7298 85.3467 15.8398C85.4314 15.9499 85.4737 16.1064 85.4737 16.3096V22.1748C85.4737 22.4626 85.4102 22.6742 85.2832 22.8096C85.1563 22.9365 84.9447 23 84.6485 23H72.8164C72.6133 23 72.4567 22.9661 72.3467 22.8984C72.2367 22.8307 72.1521 22.7038 72.0928 22.5176C72.042 22.3314 72.0166 22.0605 72.0166 21.7051C72.0166 21.3496 72.042 21.0788 72.0928 20.8926C72.1521 20.7064 72.2367 20.5794 72.3467 20.5117C72.4567 20.4355 72.6133 20.3975 72.8164 20.3975H74.67V10.5332H72.8164C72.6133 10.5332 72.4567 10.4993 72.3467 10.4316C72.2367 10.3639 72.1521 10.237 72.0928 10.0508C72.042 9.86458 72.0166 9.59375 72.0166 9.23828C72.0166 8.88281 72.042 8.61198 72.0928 8.42578C72.1521 8.23958 72.2367 8.11263 72.3467 8.04492C72.4567 7.96875 72.6133 7.93066 72.8164 7.93066H80.6114ZM105.444 7.93066C105.741 7.93066 105.952 7.99414 106.079 8.12109C106.206 8.24805 106.27 8.45964 106.27 8.75586V12.5898C106.27 12.8776 106.147 13.085 105.901 13.2119C105.656 13.3304 105.262 13.3896 104.721 13.3896C104.196 13.3896 103.836 13.3304 103.642 13.2119C103.447 13.0934 103.35 12.8861 103.35 12.5898V10.6602H98.2716V13.8721H101.369C101.665 13.8721 101.873 13.9694 101.991 14.1641C102.11 14.3587 102.169 14.7184 102.169 15.2432C102.169 15.7679 102.11 16.1276 101.991 16.3223C101.873 16.5085 101.665 16.6016 101.369 16.6016H98.2716V20.2705H103.477V17.7061C103.477 17.4183 103.599 17.2152 103.845 17.0967C104.099 16.9697 104.509 16.9062 105.076 16.9062C105.635 16.9062 106.016 16.9655 106.219 17.084C106.422 17.2025 106.524 17.4098 106.524 17.7061V22.1748C106.524 22.4626 106.46 22.6742 106.333 22.8096C106.206 22.9365 105.995 23 105.698 23H93.8663C93.6632 23 93.5066 22.9661 93.3966 22.8984C93.2865 22.8307 93.2019 22.7038 93.1427 22.5176C93.0919 22.3314 93.0665 22.0605 93.0665 21.7051C93.0665 21.3496 93.0919 21.0788 93.1427 20.8926C93.2019 20.7064 93.2865 20.5794 93.3966 20.5117C93.5066 20.4355 93.6632 20.3975 93.8663 20.3975H95.0977V10.5332H93.8663C93.6632 10.5332 93.5066 10.4993 93.3966 10.4316C93.2865 10.3639 93.2019 10.237 93.1427 10.0508C93.0919 9.86458 93.0665 9.59375 93.0665 9.23828C93.0665 8.88281 93.0919 8.61198 93.1427 8.42578C93.2019 8.23958 93.2865 8.11263 93.3966 8.04492C93.5066 7.96875 93.6632 7.93066 93.8663 7.93066H105.444Z" fill="#4B420A"/>
<g clip-path="url(#clip0_151_31)">
<path d="M126.346 13.1939C126.1 12.3448 125.463 11.7903 124.241 11.2303C124.676 9.04832 123.629 7.80144 121.643 6.64244L121.802 8.24438C120.395 7.30447 118.38 6.33488 116.574 6.41919C115.972 6.4471 115.351 6.54151 114.699 6.7321L116.909 9.05426C115.701 9.06138 113.682 9.23001 112.566 10.0595L113.76 12.0016L112.398 12.7088V15.2168L113.87 16.048L112.398 17.3157V19.0269C113.455 18.9408 114.882 19.0952 116.157 18.6688C115.256 19.7257 114.968 21.2404 113.894 22.5627C115.33 22.508 116.762 22.3216 118.293 21.4909L117.935 24.3267C120.374 23.4183 122.783 21.1288 122.576 19.1747L122.611 19.0114C122.753 19.0958 122.902 19.1712 123.059 19.2365L127.372 20.7648C127.607 20.2548 127.863 19.7418 128.134 19.2293C127.964 19.2953 127.78 19.3321 127.587 19.3321C126.752 19.3321 126.076 18.6558 126.076 17.8216C126.076 16.9873 126.752 16.3111 127.587 16.3111C128.33 16.3111 128.947 16.8478 129.073 17.5544C129.523 16.7938 130 16.0391 130.493 15.2981L126.345 13.1939H126.346Z" fill="#4B420A"/>
</g>
<defs>
<clipPath id="clip0_151_31">
<rect width="19" height="19" fill="white" transform="translate(112 6)"/>
</clipPath>
</defs>
</svg>
